<?xml version="1.0" encoding="utf-8"?>
<!-- Generator: Adobe Illustrator 23.1.0, SVG Export Plug-In . SVG Version: 6.00 Build 0)  -->
<svg version="1.1" id="Layer_1" xmlns="http://www.w3.org/2000/svg" xmlns:xlink="http://www.w3.org/1999/xlink" x="0px" y="0px"
	 viewBox="0 0 492.2 513.2" style="enable-background:new 0 0 492.2 513.2;" xml:space="preserve">
<style type="text/css">
	.st0{enable-background:new    ;}
	.st1{fill:#0F4A7F;}
</style>
<g class="st0">
	<path class="st1" d="M137.2,48.7c-6.4,13.8-11.9,31.2-16.5,52.3c-4.6,21.1-8.4,44.4-11.4,69.8c-3,25.5-5.4,52-7.2,79.5
		c-1.8,27.5-3.2,54.5-4.1,80.9c-0.9,26.4-1.7,51.2-2.4,74.3c-0.7,23.2-1.5,43-2.4,59.5c0,1.8,0,5.1,0,9.6c0,4.6-0.2,9.2-0.7,13.8
		c-0.5,4.6-1.2,8.6-2.1,12c-0.9,3.4-2.3,5.2-4.1,5.2c-1.4,0-2.5-1.8-3.4-5.5c-0.9-3.7-1.6-7.9-2.1-12.7c-0.5-4.8-0.8-9.4-1-13.8
		c-0.2-4.4-0.3-7.2-0.3-8.6c-0.9-16.5-1.7-36.4-2.4-59.5c-0.7-23.2-1.5-47.9-2.4-74.3c-0.9-26.4-2.3-53.3-4.1-80.9
		c-1.8-27.5-4.2-54-7.2-79.5c-3-25.5-6.7-48.7-11-69.8c-4.4-21.1-9.8-38.5-16.2-52.3c-2.3-5.5-5.4-11-9.3-16.5
		c-3.9-5.5-8.6-11.5-14.1-17.9c-3.2-3.7-4.5-6-3.8-6.9c0.7-0.9,3.1-0.9,7.2,0c8.3,0.9,15.2,4,21,9.3c5.7,5.3,11.8,10.4,18.2,15.5
		c11.9,8.7,22.2,13.1,31,13.1c8.7,0,19-4.4,31-13.1c6.4-5,12.5-10.2,18.2-15.5c5.7-5.3,13-8.4,21.7-9.3c4.1-0.5,6.4-0.3,6.9,0.3
		c0.5,0.7-0.9,2.9-4.1,6.5c-5.1,6.4-9.5,12.5-13.4,18.2C142.6,38.2,139.5,43.6,137.2,48.7z M317.5,23.2c-17,36.7-31.7,67.4-44,92.2
		s-22.8,45.9-31.3,63.3c-8.5,17.4-14.9,32.1-19.3,44c-4.4,11.9-6.5,23.4-6.5,34.4c0,11,2.2,22.5,6.5,34.4
		c4.4,11.9,10.7,26.5,18.9,43.7c8.3,17.2,18.7,38.1,31.3,62.6c12.6,24.5,27.4,54.9,44.4,91.2c4.6,9.6,5.6,14.9,3.1,15.8
		c-2.5,0.9-7.9-3.9-16.2-14.5L131.7,264c-2.8-3.7-4.1-6.2-4.1-7.6c0-1.4,1.4-3.9,4.1-7.6L304.4,21.8c8.7-11,14.2-15.8,16.5-14.5
		C323.2,8.7,322.1,14,317.5,23.2z M463.4,376.2c-11,1.4-22,3.2-33,5.5c-11,2.3-21.9,5.8-32.7,10.7c-10.8,4.8-21.7,11.2-32.7,19.3
		c-11,8-22,18.5-33,31.3c-1.8,2.3-3.4,3.3-4.8,3.1c-1.4-0.2-1.8-2.6-1.4-7.2c0.5-6.9,2.2-13.2,5.2-18.9c3-5.7,6.2-11.4,9.6-16.9
		c3.4-5.5,6.4-10.9,8.9-16.2c2.5-5.3,3.8-11.1,3.8-17.5c0-6-1.3-11.8-3.8-17.5c-2.5-5.7-5.5-11.4-8.9-16.9
		c-3.4-5.5-6.7-11.1-9.6-16.9c-3-5.7-4.7-12-5.2-18.9c-0.9-8.3,1.4-9.4,6.9-3.4c11,12.8,21.9,23.3,32.7,31.3
		c10.8,8,21.7,14.5,32.7,19.3c11,4.8,21.9,8.4,32.7,10.7c10.8,2.3,21.7,4.4,32.7,6.2c11.9,1.8,17.9,4,17.9,6.5
		C481.3,372.2,475.3,374.4,463.4,376.2z M463.4,153.2c-11,1.8-21.9,3.9-32.7,6.2c-10.8,2.3-21.7,5.8-32.7,10.7
		c-11,4.8-21.9,11.2-32.7,19.3c-10.8,8-21.7,18.5-32.7,31.3c-2.3,2.8-4,3.9-5.2,3.4c-1.2-0.5-1.5-2.8-1-6.9
		c0.5-6.9,2.2-13.3,5.2-19.3c3-6,6.1-11.7,9.3-17.2c3.2-5.5,6.1-11,8.6-16.5c2.5-5.5,3.8-11.2,3.8-17.2c0-6-1.3-11.8-3.8-17.5
		c-2.5-5.7-5.4-11.4-8.6-16.9c-3.2-5.5-6.3-11.1-9.3-16.9c-3-5.7-4.7-11.8-5.2-18.2c-0.5-5-0.1-7.6,1-7.6c1.1,0,2.9,1.2,5.2,3.4
		c11,12.8,21.9,23.3,32.7,31.3c10.8,8,21.7,14.3,32.7,18.9c11,4.6,21.9,8,32.7,10.3c10.8,2.3,21.7,4.4,32.7,6.2
		c12.8,2.3,19.1,4.6,18.9,6.9C482.1,149.4,475.8,151.4,463.4,153.2z"/>
</g>
</svg>
