<?xml version="1.0" encoding="utf-8"?>
<!-- Generator: Adobe Illustrator 22.1.0, SVG Export Plug-In . SVG Version: 6.00 Build 0)  -->
<svg version="1.1" id="Layer_1" xmlns="http://www.w3.org/2000/svg" xmlns:xlink="http://www.w3.org/1999/xlink" x="0px" y="0px"
	 viewBox="0 0 224 300" style="enable-background:new 0 0 224 300;" xml:space="preserve">
<style type="text/css">
	.st0{fill:#878213;}
	.st1{opacity:0.3;fill:#1B1464;}
	.st2{fill:#FFFF00;}
</style>
<g>
	<polygon class="st0" points="18,218.2 18,285.6 171.5,285.6 97.9,218.2 	"/>
	<polygon class="st1" points="209.5,218.2 209.5,218.2 171.5,285.6 171.5,285.6 	"/>
	<polygon class="st0" points="56.1,108 132,38.7 74.6,39.5 17.3,79.9 17.4,143.7 17.4,143.3 17.3,80.3 	"/>
	<polygon class="st2" points="113,12.5 17,12.5 17,40.2 74.6,39.5 132,38.7 	"/>
	<g>
		<polygon class="st2" points="209.5,217.9 56.1,108 17.3,80.3 17.4,143.3 17.4,144.1 97.9,218.2 171.5,285.6 171.5,286 
			171.5,285.6 209.5,218.2 		"/>
	</g>
</g>
</svg>
