<svg id="Layer_1" data-name="Layer 1" xmlns="http://www.w3.org/2000/svg" viewBox="0 0 43.41 61.66"><defs><style>.cls-1{fill:#004880;}.cls-2{fill:#1b1464;opacity:0.3;}.cls-3{fill:#fff;}</style></defs><title>mspc_logo v2 wireframe small</title><polygon class="cls-1" points="0.23 46.37 0.23 61.56 34.83 61.56 18.24 46.37 0.23 46.37"/><polygon class="cls-2" points="43.41 46.37 43.41 46.37 34.83 61.56 34.83 61.56 43.41 46.37"/><polygon class="cls-1" points="8.82 21.53 25.93 5.92 12.99 6.08 0.07 15.19 0.09 29.58 0.09 29.48 0.07 15.29 8.82 21.53"/><polygon class="cls-3" points="0.5 0.5 21.39 0.5 24.95 5.43 0.5 5.73 0.5 0.5"/><path class="cls-1" d="M31.43,2.17l2.85,3.94-11,.14-12,.14V2.17H31.43m.51-1H10.3V7.41l13-.16,12.94-.16L31.94,1.17Z" transform="translate(-10.3 -1.17)"/><polygon class="cls-3" points="18.57 46 0.58 29.46 0.58 16.26 8.53 21.94 42.78 46.47 34.71 60.77 18.57 46"/><path class="cls-1" d="M11.37,18.4l7.17,5.11L52.42,47.79,44.88,61.15,29.21,46.81,11.38,30.41v-12m-1-1.94V30.85L28.53,47.54l16.6,15.2v0l8.57-15.2v-.06L19.12,22.7l-8.75-6.24Z" transform="translate(-10.3 -1.17)"/></svg>