<svg id="Layer_1" data-name="Layer 1" xmlns="http://www.w3.org/2000/svg" viewBox="0 0 227.16 203.34"><defs><style>.cls-1{fill:#86c240;}</style></defs><title>logo</title><path class="cls-1" d="M30.7,206.23S23.44,76.93,15,34.61C13.38,26.53,2.71,3,2.71,3s14.87,10.72,28,10.72C43.49,13.71,56.23,3,56.23,3S47.7,26.62,46.41,34.61C39.51,77.21,30.7,206.23,30.7,206.23Z" transform="translate(-2.71 -2.89)"/><polygon class="cls-1" points="45.98 91.17 159.08 0 92.45 91.17 159.08 202.34 45.98 91.17"/><path class="cls-1" d="M229.87,52.06S184.25,63.5,169.32,72.92c-2.85,1.8-11.16,10.35-11.16,10.35S171.64,59.76,171.64,52c0-7.12-13.48-28.37-13.48-28.37s8.34,6.17,11.16,7.61C184.35,38.89,229.87,52.06,229.87,52.06Z" transform="translate(-2.71 -2.89)"/><path class="cls-1" d="M229.87,148.76s-45.62,11.44-60.55,20.86c-2.85,1.8-11.16,10.35-11.16,10.35s13.48-23.51,13.48-31.31c0-7.12-13.48-28.36-13.48-28.36s8.34,6.16,11.16,7.6C184.35,135.6,229.87,148.76,229.87,148.76Z" transform="translate(-2.71 -2.89)"/></svg>