<svg id="Layer_1" data-name="Layer 1" xmlns="http://www.w3.org/2000/svg" viewBox="0 0 983.39 362.63"><defs><style>.cls-1{fill:#222629;}.cls-2{fill:#86c240;}</style></defs><title>logo_w_txt</title><path class="cls-1" d="M95.5,305.94a2.37,2.37,0,0,1,.61,1.27l0,1.41q0,3.57.68,10.7t1.69,14.3q1,7.19,2,13.13t1.12,6.91a3.77,3.77,0,0,0,.67,1.71,5,5,0,0,1,.58,1.56c0,.45-.42.68-1.26.68h-.29l-.8,1.05a12.7,12.7,0,0,1-2,.36,3.59,3.59,0,0,0-1.45.36c-.07,0-.16-.14-.25-.43a10.26,10.26,0,0,1-.22-1.26q-.1-.84-.18-2.1l-.26-6.79c0-2.72-.13-4.51-.25-5.35q-.66-4.15-1.23-8.67l-.8-7c-.48-4.14-.88-7-1.18-8.65s-.74-2.6-1.32-2.91q-13.69,26.7-13.69,28a5.78,5.78,0,0,0,.14.9,6.81,6.81,0,0,0-.61,1.08,1.33,1.33,0,0,1,.32.83,9,9,0,0,0-2.6,3.91,1.5,1.5,0,0,1-1,.54,5.17,5.17,0,0,1-1.53-1.09,4.94,4.94,0,0,1-1.64-3,1.59,1.59,0,0,1-.47-.4,2.58,2.58,0,0,1-.4-.61,7.2,7.2,0,0,1-.28-.8l-.22-1q-.11-.54-.18-1.23l-1.81-3.86L64,331.45q-3.87-9.18-6-13.22a4.79,4.79,0,0,0-.54.56,6.09,6.09,0,0,0-.54,2.08q-.84,4.62-2.14,10.76L53,340.3a74.42,74.42,0,0,0-1.23,9.18,7.6,7.6,0,0,1-.34,1.47,5.47,5.47,0,0,0-.31,1.57c0,.07,0,.32.11.76a8.54,8.54,0,0,1,.11,1.37c0,1.78-.3,2.94-.91,3.47a2.66,2.66,0,0,0-1.42.58,2.48,2.48,0,0,1-1,.54h-.11a2.16,2.16,0,0,1-1.33-.7,10.34,10.34,0,0,0-1.09-.93q2.69-3,6-24c.31-2,1-5.06,2-9.12a42.11,42.11,0,0,0,1.5-8.91l-.07-3.18a8.55,8.55,0,0,1,.76-4A2.29,2.29,0,0,1,57.7,307c1.2,0,2,1.16,2.35,3.47a1.44,1.44,0,0,1,1,1.21,21.13,21.13,0,0,0,.38,2.62,29.75,29.75,0,0,0,2.51,6.28l2.13,4.19v1.31q.64,1.95,3.25,7.53a62.5,62.5,0,0,0,3.61,7.07c.67,1,1.25,1.48,1.73,1.48q2.2,0,5.24-7.84c.39-1,1.32-3,2.81-6A73.18,73.18,0,0,0,86,320.69a24.18,24.18,0,0,1,2.56-5.32,20.68,20.68,0,0,0,1.55-4,12.65,12.65,0,0,1,2.1-4.33,3.24,3.24,0,0,1,2.46-1.28A4.49,4.49,0,0,1,95.5,305.94Z" transform="translate(-16.5 -17.17)"/><path class="cls-1" d="M139.75,324.77a4.43,4.43,0,0,1,1.77-.72l2.21-.47H144c.48,0,.72.61.72,1.84l-1.19,3.9a25.69,25.69,0,0,0-.83,3.72,24,24,0,0,0-.26,3.4,26,26,0,0,0,.26,3.52,6.5,6.5,0,0,0,1.3,3.2,1.26,1.26,0,0,1,.07.47,2.89,2.89,0,0,1-.6,1.25,4.23,4.23,0,0,0-.59,2.36,16.93,16.93,0,0,0,.31,2.59c.2,1.19.31,1.92.32,2.2a1.1,1.1,0,0,0,.54.8c.35.25.53.44.53.56s-.2.36-.58.5c-.1,1.18-.15,1.9-.15,2.17,0,.89.12,1.39.37,1.48a11.37,11.37,0,0,1-3.73,1c-1,0-1.48-.41-1.48-1.23a3.28,3.28,0,0,1,.26-1,1.23,1.23,0,0,1-.11-.58,2.38,2.38,0,0,1,.2-1.09,1.76,1.76,0,0,0,.19-.79,13.48,13.48,0,0,0-.21-2c-.15-.87-.59-1.3-1.34-1.3-.55,0-1.59.68-3.11,2.05a30.15,30.15,0,0,1-6.07,4.38,4.24,4.24,0,0,0-1.48.76c-3.42.52-5.2.79-5.35.79a4.38,4.38,0,0,1-2.33-1,14.15,14.15,0,0,1-2.31-2,8.73,8.73,0,0,1-1.55-3.13,15.57,15.57,0,0,1-.67-4.75q0-1.15.9-8c.6-4.56,1.07-7.81,1.41-9.78s.51-3,.51-3.09a2.76,2.76,0,0,0-.26-.9l-.29-.58v-.14c0-.17.12-.29.37-.36a12.58,12.58,0,0,0,1.38-.62,2.55,2.55,0,0,1,2.62-.25,4.36,4.36,0,0,0,1.31.25h.22a2.82,2.82,0,0,1,.9,1.12l-.76.87a9.16,9.16,0,0,0-2.63,5.56l-1.17,7.77a39.27,39.27,0,0,0-.68,5.78c0,3.38.65,5.85,2,7.41s2.6,2.35,3.88,2.35l.62-.07,1.08.07a6.3,6.3,0,0,0,2.13-.81,49.69,49.69,0,0,0,4.68-2.93,16.57,16.57,0,0,0,3.76-3.11,10.14,10.14,0,0,0,1.17-2.53A18.65,18.65,0,0,0,139,342a34.67,34.67,0,0,0,.26-4.41,75.12,75.12,0,0,0-.28-8.18c-.18-1.41-.48-2.26-.92-2.55s-.47-.88-.47-1.91a5.12,5.12,0,0,0,.82-.38.77.77,0,0,1,.45-.17A1.72,1.72,0,0,1,139.75,324.77Z" transform="translate(-16.5 -17.17)"/><path class="cls-1" d="M165.56,355.77a5.05,5.05,0,0,1-.56,1.41,1.75,1.75,0,0,1-1.14.36,1.21,1.21,0,0,1-.8.43c-.19,0-.39-.14-.61-.43a3.91,3.91,0,0,1-1.23.8c-1.88-.53-2.82-1.22-2.82-2.06v-.08c.39,0,.58-.35.58-1v-.65l-.07-1.2a10.51,10.51,0,0,1,.43-1.69,78.1,78.1,0,0,0,.54-10.37v-7.41l-.07-2.78.07-2.39-.43-8.35.29-5.78-.29-7.48v-1.41a6.79,6.79,0,0,1-.47-2.42l.15-1.55a1.43,1.43,0,0,0-.29-.69,6.41,6.41,0,0,1,.63-3.09,5,5,0,0,1,1.55-1.75,3.3,3.3,0,0,1,1.83-.61c1,0,1.94,1,2.71,3a11.38,11.38,0,0,0-1.34,2.08,7,7,0,0,0-.51,3l.15,4.15-.15,10.34.08,14.12-.15,16.08.07.65c0,.39-.09.64-.28.76a3.59,3.59,0,0,1,.7,2.23,6,6,0,0,0,.72,2.61C165.23,355.19,165.46,355.58,165.56,355.77Z" transform="translate(-16.5 -17.17)"/><path class="cls-1" d="M194.51,326c0,.14.16.27.43.37l.43.16h.4a3.81,3.81,0,0,1,2.06.54,1.5,1.5,0,0,1,.87,1.22c0,.48-.34.94-1,1.4l-.44-.47a2.28,2.28,0,0,1-1.73,1.11l-.22-.43-.43.14a7.83,7.83,0,0,0-3.25-.72l-3.4.15c-.48,0-1.21-.05-2.17-.15a87.71,87.71,0,0,0-.94,11c0,1,.06,2.14.16,3.45a11.85,11.85,0,0,0,.64,3.22c.31.84.62,1.6.94,2.3a6.46,6.46,0,0,0,1.59,2.08,8.16,8.16,0,0,0,2.07,1.47,5,5,0,0,1,1.67,1.21q.7.78,3.66.78h.73c.45.36.68.66.68.9a2.69,2.69,0,0,1-.52,1.23c-.35.55-.63,1-.83,1.41a5.54,5.54,0,0,1-1,1.26h-.15a.34.34,0,0,1-.29-.21,8,8,0,0,1-2.24-.29.06.06,0,0,1-.07.07,1,1,0,0,1-.34-.2,2.69,2.69,0,0,0-.53-.31,2.11,2.11,0,0,0-1-.9,10.51,10.51,0,0,1-3-1.7,15.93,15.93,0,0,1-2.87-3.19,10.49,10.49,0,0,1-1.86-3.79,35.26,35.26,0,0,1-.62-4.18c-.15-1.63-.23-3.37-.23-5.23a87.83,87.83,0,0,1,.68-10.35l-.75-.25-.22.47h-.51l-.14-.47c-5.59-.21-8.38-.75-8.38-1.6a1,1,0,0,1,.52-.84,7,7,0,0,1,3.05-.38h1.41l1.52-.36a5.66,5.66,0,0,0,3-1.81c.39-.45.76-2.06,1.1-4.8a41.78,41.78,0,0,0,.32-5.39v-1.48a7.18,7.18,0,0,1,1.76-3.94c.49-.48.85-.72,1.06-.72a4.74,4.74,0,0,1,1.52.27,3.59,3.59,0,0,1,.9.38,1.52,1.52,0,0,1,.26.56,1.89,1.89,0,0,0,.36.71v.14c0,.1-.09.17-.27.22a1.15,1.15,0,0,0-.35.14.79.79,0,0,0-.12.15,19.91,19.91,0,0,0-.53,1.95c-.31,1.25-.58,2.5-.79,3.76s-.39,2.48-.51,3.68-.18,2.4-.18,3.58a8.88,8.88,0,0,0,.22,2.85.69.69,0,0,0,.61.33,4.44,4.44,0,0,0,.92-.24,4.78,4.78,0,0,1,1.36-.23,1.65,1.65,0,0,1,.54.07l.43.9a1.84,1.84,0,0,0,.58.08,5.22,5.22,0,0,0,1.54-.49A8.46,8.46,0,0,1,194.51,326Z" transform="translate(-16.5 -17.17)"/><path class="cls-1" d="M214.46,357.61c0,.15-.52.43-1.56.85a7.92,7.92,0,0,1-2,.63h-.22a3.83,3.83,0,0,0-.93.15,4,4,0,0,1-.78.14,1.8,1.8,0,0,1-1.23-.48c-.36-.33-.55-.59-.55-.78a15.4,15.4,0,0,1,.29-2.37,5.18,5.18,0,0,1,.91-2.36,82.59,82.59,0,0,0,.28-8.5l-.28-13.11.07-2.28a3.47,3.47,0,0,0-.6-1.34,4.45,4.45,0,0,1-.59-2.38,1.37,1.37,0,0,1,.45-1.17,11.15,11.15,0,0,1,2.09-1l2.07-.91a1,1,0,0,1,.44-.07c.6,0,.91.94.91,2.82q0,1.59-.56,8.25c-.38,4.45-.56,8.06-.56,10.83,0,1.56,0,3,.12,4.42s.18,2.44.28,3.16a5.31,5.31,0,0,0,.65,2,7.39,7.39,0,0,1,1,3.4Zm-1.66-46a11.22,11.22,0,0,0,1.88,1.05c.86.41,1.3.9,1.3,1.48a2.47,2.47,0,0,1-.94,1.68,2.77,2.77,0,0,1-1.88.88,3.24,3.24,0,0,1-2.22-1.19,5.58,5.58,0,0,1-1.18-1.37,2.53,2.53,0,0,1,1-1.59,2.85,2.85,0,0,1,1.93-.94Z" transform="translate(-16.5 -17.17)"/><path class="cls-1" d="M233.11,326.47a77.46,77.46,0,0,1,8.75-2.79,22.41,22.41,0,0,1,2.49-.39,17.57,17.57,0,0,1,4.57,1.3c2.32.86,3.62,1.49,3.88,1.88.1.17.57.8,1.41,1.91q2.28,2.28,2.28,6.79a16.75,16.75,0,0,1-2.13,7.81,14.22,14.22,0,0,1-5.1,5.82,2.59,2.59,0,0,0-.54,1,39.69,39.69,0,0,1-5.67,4.23l-1,.43c-1.08,1.09-1.84,1.63-2.27,1.63a1.07,1.07,0,0,1-.47-.07c-1.18.79-2.05,1.36-2.59,1.7a6.33,6.33,0,0,1-2.22.74,6.65,6.65,0,0,0-1.75.43c-.23.13-.42.59-.56,1.37a20.51,20.51,0,0,0-.22,3.53q0,4.39.29,7.86a32.31,32.31,0,0,0,.45,3.95,3.42,3.42,0,0,0,.45.92,1.35,1.35,0,0,1,.29.56.65.65,0,0,1-.34.53l-.74.48a1.47,1.47,0,0,1-.54.26s-.1-.05-.15-.15a7.26,7.26,0,0,1-2.89.76,1.93,1.93,0,0,1-1-.4,1.16,1.16,0,0,1-.59-1,6.66,6.66,0,0,1,.48-2.15,6.25,6.25,0,0,0,.49-1.93l-.07-1.34.29-10a19.39,19.39,0,0,0-.2-3.31,4.24,4.24,0,0,0-1.07-2l.33-1.69-.11-.29a1.85,1.85,0,0,1,.52-1,2.9,2.9,0,0,0,.53-1.89l-.07-2v-.76a7.52,7.52,0,0,0,.28-2.28v-4.58c0-.46,0-1.15.11-2.06s.11-1.62.11-2.1a33.23,33.23,0,0,0-.22-4.86c-.14-.81-.43-1.21-.86-1.21a4.13,4.13,0,0,0-1.12.27,4.19,4.19,0,0,1-1.27.27l-.29-.07-.83-.9a6.57,6.57,0,0,1,2.44-1.65c1.29-.61,1.93-1.24,1.93-1.9a5.24,5.24,0,0,0-.1-.79,4.8,4.8,0,0,1-.11-1l.07-.54a2.18,2.18,0,0,0-.58-1l-.14-1.41a2.43,2.43,0,0,1,.58-1.88,4.11,4.11,0,0,1,1.64-.79,5.28,5.28,0,0,0,1.39-.51h1.12q.87,0,.87.72l-.29,1.16a9.63,9.63,0,0,0-.29,1.81l.07.9-.14,1.23C232.68,326.26,232.82,326.39,233.11,326.47Zm.22,26.88A10.14,10.14,0,0,0,237,354a8.6,8.6,0,0,0,1.68-.15,9.87,9.87,0,0,0,2.56-1.25q1.83-1.09,4.39-2.91a14.55,14.55,0,0,0,1.79-1.45,19.73,19.73,0,0,0,2.62-3.8,15.16,15.16,0,0,0,1.41-3.74,16,16,0,0,0,.62-3.78,15.13,15.13,0,0,0-.69-3.66,8.35,8.35,0,0,0-2.51-4.07c-1.22-1.07-2-1.61-2.48-1.61h-.21a2.5,2.5,0,0,1-1.7-.65h-1.41l-2.46-.07q-4.34,0-6.3,1.43c-1.32.95-2,2.7-2,5.23l.07,3.18-.22,15.49a.69.69,0,0,0,.54.69C233.08,353,233.28,353.18,233.33,353.35Z" transform="translate(-16.5 -17.17)"/><path class="cls-1" d="M274,355.77a4.75,4.75,0,0,1-.56,1.41,1.75,1.75,0,0,1-1.14.36,1.19,1.19,0,0,1-.79.43c-.2,0-.4-.14-.62-.43a3.91,3.91,0,0,1-1.23.8c-1.88-.53-2.82-1.22-2.82-2.06v-.08c.39,0,.58-.35.58-1v-.65l-.07-1.2a10.51,10.51,0,0,1,.43-1.69,77.82,77.82,0,0,0,.55-10.37v-7.41l-.08-2.78.08-2.39-.44-8.35.29-5.78-.29-7.48v-1.41a6.79,6.79,0,0,1-.47-2.42l.15-1.55a1.43,1.43,0,0,0-.29-.69,6.41,6.41,0,0,1,.63-3.09,5,5,0,0,1,1.55-1.75,3.3,3.3,0,0,1,1.83-.61c1,0,1.94,1,2.71,3a11.38,11.38,0,0,0-1.34,2.08,7,7,0,0,0-.5,3l.14,4.15-.14,10.34.07,14.12L272,348.36l.08.65a.84.84,0,0,1-.29.76,3.59,3.59,0,0,1,.7,2.23,6,6,0,0,0,.72,2.61C273.62,355.19,273.85,355.58,274,355.77Z" transform="translate(-16.5 -17.17)"/><path class="cls-1" d="M312.65,334.74a1.09,1.09,0,0,1,.29.83,2,2,0,0,1-.57,1.56s.07.09.07.21c0,.39-.52.58-1.56.58h-.5a.6.6,0,0,0-.44.25c-.14.17-.25.26-.32.26a1.82,1.82,0,0,1-.34-.22,2.17,2.17,0,0,0-.93-.29l-.43-.43a6.08,6.08,0,0,1-1.55.21,11.6,11.6,0,0,1-1.61-.14,11.83,11.83,0,0,0-1.5-.15,14,14,0,0,0-1.68.22,13.28,13.28,0,0,1-2.26.22l-3.54-.15a24.09,24.09,0,0,0-5.17.51,2.79,2.79,0,0,1-.95.27c-.43.06-.65.25-.69.58s-.28.58-.74.78a11.32,11.32,0,0,0-.36,2.67,22,22,0,0,0,.54,3.58,9,9,0,0,0,1.44,3.75c.15.17,1.18.94,3.11,2.32a14.25,14.25,0,0,0,4,2.08,16.18,16.18,0,0,0,5,.7,26.74,26.74,0,0,0,2.79-.18l1.51-.18h2.35a3.48,3.48,0,0,0,1.36-.65,4.42,4.42,0,0,1,2-.76,4.36,4.36,0,0,1-.59,4.73,3,3,0,0,1-2.37,1.27l-.76-.15-2.28.07H304a45.78,45.78,0,0,1-6.75-1.15,21.19,21.19,0,0,1-8-3,10.88,10.88,0,0,1-3.76-4.86,15.31,15.31,0,0,1-1.19-5.76,21.9,21.9,0,0,1,1.44-7.64,20,20,0,0,1,3.29-6,23.85,23.85,0,0,1,5.6-4.46,8.31,8.31,0,0,0,1.1-.74,2.43,2.43,0,0,1,1.43-.56l1.19.07a7.94,7.94,0,0,1,2.73-.85,19.27,19.27,0,0,1,3.2-.34,9.26,9.26,0,0,1,4.82,1.63c1.75,1.08,2.8,3.35,3.16,6.79a7.61,7.61,0,0,0,.31,1.46,4.93,4.93,0,0,1,.2.64A1.12,1.12,0,0,1,312.65,334.74Zm-14.81-7.91a7.38,7.38,0,0,1-2.06,1.19,14,14,0,0,0-1.73,1.48c-.56.56-1.1,1.15-1.63,1.79s-1,1.21-1.39,1.72l-.92,1.14a1.08,1.08,0,0,0-.33.66c0,.27.17.46.51.58l.47.18h2.67L306,335.1c1.61,0,2.42-.71,2.42-2.13a8.3,8.3,0,0,0-.89-3.92q-.89-1.68-4.64-2.66c-.29,0-.7,0-1.23-.07s-.92-.07-1.16-.07A22.91,22.91,0,0,0,297.84,326.83Z" transform="translate(-16.5 -17.17)"/><path class="cls-1" d="M362.82,313.57a13.52,13.52,0,0,1-1.48-1.27,3.61,3.61,0,0,0-2.53-1c-3.85,0-6.89.87-9.1,2.6a8.28,8.28,0,0,0-3.33,6.86q0,4.62,9.87,9.76a8.82,8.82,0,0,1,1.5.15,7.6,7.6,0,0,1,2.85,2.08,22.84,22.84,0,0,1,3,3.46,13.09,13.09,0,0,1,1.59,3.11,9.59,9.59,0,0,1,.54,3.13c0,4.57-1.07,8.12-3.21,10.62s-6,4.76-11.46,6.76a2.38,2.38,0,0,0-.79-.15,4.71,4.71,0,0,0-1.82.63c-.84.43-2.53.64-5.08.64a2,2,0,0,1-1.93-1.14,7.83,7.83,0,0,1-.57-3.38,2,2,0,0,1,.51-1.26h.29a2.75,2.75,0,0,1,1.95,1.12,19.06,19.06,0,0,0,2.71.5c.27,0,1.4-.12,3.42-.38a17.58,17.58,0,0,0,5.7-1.71,10.93,10.93,0,0,0,3.67-2.57,20.25,20.25,0,0,0,1.92-2.94,8.09,8.09,0,0,0,.94-3.92,11.19,11.19,0,0,0-2-6.3q-2-3-4.39-3.45v-.11c0-.4-.55-.92-1.63-1.55q-6.36-2.91-8.9-5.74a9.68,9.68,0,0,1-2.55-6.7,11.1,11.1,0,0,1,.42-3,11.72,11.72,0,0,1,1.21-2.83,11.42,11.42,0,0,1,2-2.5,16.07,16.07,0,0,1,3.16-2.29,7,7,0,0,1,2.78-1.16h1.12a8.87,8.87,0,0,0,.79-.83,7,7,0,0,0,2.14-.58c.79-.33,1.3-.54,1.51-.61a1.18,1.18,0,0,1,.51.61,10.07,10.07,0,0,1,2.06-.21H361a6,6,0,0,1,2.56.43,1.82,1.82,0,0,1,.91,1.84,4.78,4.78,0,0,1-.53,2.19C363.57,313.12,363.21,313.5,362.82,313.57Z" transform="translate(-16.5 -17.17)"/><path class="cls-1" d="M397.77,338.28c0,.2-.16.46-.49.8a3.51,3.51,0,0,0-.67.9,8.73,8.73,0,0,0-.29,2.11c-.07,1.15-.11,2.84-.11,5.08l.15,4.88a.91.91,0,0,1-.33.69,9.65,9.65,0,0,0-.07,1.33,17.16,17.16,0,0,0,.44,3.4l.39,1.91-.07,1.77.07,1.56q-2.6,2.6-3.86,2.6a2.22,2.22,0,0,1-.69-.25,2.12,2.12,0,0,0-.94-.26h-.22a6.65,6.65,0,0,1-.28-1.8,7.3,7.3,0,0,1,.83-3.4c.26-.34.46-.6.59-.79a6.18,6.18,0,0,0,.2-2.17c0-1.38-.14-2.06-.43-2.06a2.46,2.46,0,0,0-.45.14,2.25,2.25,0,0,1-.82.15h-.29a1.19,1.19,0,0,0-.54.76,28,28,0,0,0-4.73,1.62,12.47,12.47,0,0,1-4.05.72,12,12,0,0,1-3.83-.56,7.33,7.33,0,0,1-2.85-1.66,10.59,10.59,0,0,1-1.5-1.64,5.09,5.09,0,0,1-.35-2.35l.08-.9v-.29q0-3.61,5.61-7.59a26.41,26.41,0,0,1,10.5-4.81,13.93,13.93,0,0,0,2-.45A2.62,2.62,0,0,0,392,337a4.14,4.14,0,0,0,.49-2.5q0-6.43-6.79-8.74a5,5,0,0,1-.6-.29,1.32,1.32,0,0,0-.66-.22,49.93,49.93,0,0,0-5.86.29,3.8,3.8,0,0,1-2.89,1.48c-.79,0-1.19-.27-1.19-.83,0,0,.17-.53.52-1.53a2.34,2.34,0,0,1,2.51-1.5q2.28-1.23,8.31-1.23a8.68,8.68,0,0,1,7.52,3.76q2.67,3.75,2.67,10.73v.5a1.71,1.71,0,0,0,1,.69c.48.14.72.36.72.65Zm-7.12,12.83a9.63,9.63,0,0,0,2.28-5.49,8.33,8.33,0,0,0-.74-3.22,2.9,2.9,0,0,0-2.95-1.73,10.82,10.82,0,0,0-6.94,2.13h-.9q-5.56,3.07-5.56,6.5a4.87,4.87,0,0,0,2.29,4.07,9,9,0,0,0,5.33,1.64,13.37,13.37,0,0,0,3-.68,10.29,10.29,0,0,0,4.15-2.57Z" transform="translate(-16.5 -17.17)"/><path class="cls-1" d="M447.57,325.78a20,20,0,0,0,2.92-.47l1.59-.4c3.74,0,6.47,1,8.21,2.91s2.6,5,2.6,9.13a44,44,0,0,1-.6,7,47.24,47.24,0,0,1-2.19,8.21,24.9,24.9,0,0,0-1.59,5.6,1.25,1.25,0,0,0,.08.36,27.87,27.87,0,0,0-.76,3l-2.13.22-.83-.07-.73.07a3.43,3.43,0,0,1-1.55-.51c.05-1.85.37-3,1-3.47a1.2,1.2,0,0,1-.25-.54v-.21a1.44,1.44,0,0,1,1-.44q4.8-9.24,4.8-16.29a20.33,20.33,0,0,0-.85-6.07,18,18,0,0,0-1.5-3.82,4,4,0,0,0-2.24-1.6,10.91,10.91,0,0,0-3.61-.55,12.67,12.67,0,0,0-4.7,1.45l-4.91,2.31c-1.25.56-1.88,1.27-1.88,2.13a2,2,0,0,0,.18.62,1.62,1.62,0,0,0-.9.43,117.2,117.2,0,0,0-.91,12.94l.19,8.09a2.3,2.3,0,0,1-.47,1.55,4.41,4.41,0,0,0-2.9,1.41,3,3,0,0,0-1.15-.54c-.65-.26-1-1.18-1-2.74v-.51a34.39,34.39,0,0,0,1.56-5.51,43.4,43.4,0,0,0,.57-7.9,32.05,32.05,0,0,0-.25-3.86l-.25-1.66v-.62a8.4,8.4,0,0,0-.22-1.93,6.75,6.75,0,0,0-.76-1.9,9.06,9.06,0,0,0-1.44-1.84,7.79,7.79,0,0,0-1.7-1.34,4.74,4.74,0,0,0-2.24-.43,7.57,7.57,0,0,0-1.52.14,4,4,0,0,0-1.3.51,11.19,11.19,0,0,1-2.28,1,24,24,0,0,0-2.74,1.16,9,9,0,0,0-2,1.41,5.93,5.93,0,0,0-1.26,1.87,9.8,9.8,0,0,0-.69,2.61,26.32,26.32,0,0,0-.22,3.65l.44,10.19a10.63,10.63,0,0,0,.76,4.73,4.11,4.11,0,0,1-1.58,2.31,3.41,3.41,0,0,1-1.6.65h-.15a1.06,1.06,0,0,1-.83-.43l-.43.29a2.49,2.49,0,0,1-.44-1.05,3,3,0,0,0,.36-1.7c0-.31,0-.85-.1-1.63s-.11-1.36-.11-1.77v-.43c0-.07.08-1.41.25-4s.25-6.21.25-10.78c0-.58-.47-1.12-1.41-1.63a2.55,2.55,0,0,1-.21-.79,3.64,3.64,0,0,1,.21-.91l-.43-.21a9.37,9.37,0,0,1,1-1.21,11.17,11.17,0,0,0,.76-.84,1.37,1.37,0,0,0,.15-.77,4.21,4.21,0,0,0-.6-1.79,2.73,2.73,0,0,1-.49-1.52,2.51,2.51,0,0,0,.11-.52,3,3,0,0,1,.51-1c.33-.54.63-1.07.9-1.57h.69a7.75,7.75,0,0,0,.57-.71,1,1,0,0,1,.76-.49,2.16,2.16,0,0,1,1.59.83,2.77,2.77,0,0,1,.76,1.92,3.83,3.83,0,0,1-.07.83,3.29,3.29,0,0,0-.58,1.7c0,1.08.22,1.62.65,1.62a9.6,9.6,0,0,0,1.12-.57,21.7,21.7,0,0,1,2.69-1.21c1.1-.43,2.09-.84,3-1.25a9.59,9.59,0,0,1,1.46-.62l1.16.15a1.29,1.29,0,0,0,.47-.07,5.5,5.5,0,0,1,3.18-.65,7.59,7.59,0,0,1,3.43.95,5.45,5.45,0,0,1,2.6,2.8,2.43,2.43,0,0,0,.92,1.18,2,2,0,0,0,1,.38.13.13,0,0,0,.15-.15.23.23,0,0,0-.08-.14,8.67,8.67,0,0,0,1.41-.9,5.92,5.92,0,0,1,2.42-1q.51-1.15,4.45-1.91Z" transform="translate(-16.5 -17.17)"/><path class="cls-1" d="M481.76,326.47a77.53,77.53,0,0,1,8.74-2.79,23.16,23.16,0,0,1,2.49-.39,17.36,17.36,0,0,1,4.57,1.3c2.33.86,3.62,1.49,3.89,1.88.09.17.56.8,1.41,1.91,1.52,1.52,2.27,3.78,2.27,6.79A16.75,16.75,0,0,1,503,343a14.27,14.27,0,0,1-5.09,5.82,2.59,2.59,0,0,0-.54,1,40.14,40.14,0,0,1-5.68,4.23l-1,.43c-1.09,1.09-1.85,1.63-2.28,1.63A1.1,1.1,0,0,1,488,356c-1.18.79-2,1.36-2.58,1.7a6.48,6.48,0,0,1-2.22.74,6.77,6.77,0,0,0-1.76.43c-.23.13-.41.59-.56,1.37a21.84,21.84,0,0,0-.21,3.53q0,4.39.28,7.86a33.52,33.52,0,0,0,.46,3.95,3.15,3.15,0,0,0,.45.92,1.5,1.5,0,0,1,.29.56.66.66,0,0,1-.35.53c-.22.15-.47.32-.74.48a1.34,1.34,0,0,1-.54.26c-.05,0-.1-.05-.14-.15a7.34,7.34,0,0,1-2.89.76,1.9,1.9,0,0,1-1-.4,1.17,1.17,0,0,1-.6-1,6.46,6.46,0,0,1,.49-2.15,6.56,6.56,0,0,0,.49-1.93l-.08-1.34.29-10a18.39,18.39,0,0,0-.2-3.31,4.22,4.22,0,0,0-1.06-2l.32-1.69-.11-.29a1.89,1.89,0,0,1,.53-1A2.9,2.9,0,0,0,477,352l-.07-2v-.76a7.48,7.48,0,0,0,.29-2.28v-4.58c0-.46,0-1.15.11-2.06s.11-1.62.11-2.1a34.78,34.78,0,0,0-.22-4.86c-.15-.81-.43-1.21-.87-1.21a4.21,4.21,0,0,0-1.12.27,4.19,4.19,0,0,1-1.26.27l-.29-.07-.83-.9a6.48,6.48,0,0,1,2.44-1.65c1.28-.61,1.93-1.24,1.93-1.9a5.74,5.74,0,0,0-.11-.79,5.62,5.62,0,0,1-.11-1l.07-.54a2.23,2.23,0,0,0-.57-1l-.15-1.41a2.43,2.43,0,0,1,.58-1.88,4.18,4.18,0,0,1,1.64-.79,5.39,5.39,0,0,0,1.4-.51h1.12c.57,0,.86.24.86.72l-.29,1.16a9.63,9.63,0,0,0-.29,1.81l.08.9-.15,1.23C481.32,326.26,481.47,326.39,481.76,326.47Zm.21,26.88a10.18,10.18,0,0,0,3.65.69,8.46,8.46,0,0,0,1.68-.15,9.88,9.88,0,0,0,2.57-1.25c1.21-.73,2.68-1.7,4.39-2.91a16.22,16.22,0,0,0,1.79-1.45,20.21,20.21,0,0,0,2.62-3.8,15.16,15.16,0,0,0,1.41-3.74,16.43,16.43,0,0,0,.61-3.78,15.13,15.13,0,0,0-.69-3.66,8.21,8.21,0,0,0-2.51-4.07c-1.21-1.07-2-1.61-2.47-1.61h-.22a2.52,2.52,0,0,1-1.7-.65h-1.41l-2.45-.07q-4.35,0-6.31,1.43c-1.31.95-2,2.7-2,5.23l.07,3.18-.21,15.49a.69.69,0,0,0,.54.69C481.72,353,481.92,353.18,482,353.35Z" transform="translate(-16.5 -17.17)"/><path class="cls-1" d="M522.59,355.77a4.48,4.48,0,0,1-.56,1.41,1.7,1.7,0,0,1-1.14.36,1.17,1.17,0,0,1-.79.43c-.19,0-.4-.14-.61-.43a4.16,4.16,0,0,1-1.23.8c-1.88-.53-2.82-1.22-2.82-2.06v-.08c.38,0,.58-.35.58-1v-.65l-.08-1.2a11.17,11.17,0,0,1,.44-1.69,78.1,78.1,0,0,0,.54-10.37v-7.41l-.07-2.78.07-2.39-.43-8.35.29-5.78-.29-7.48v-1.41a6.58,6.58,0,0,1-.47-2.42l.14-1.55a1.43,1.43,0,0,0-.29-.69,6.41,6.41,0,0,1,.63-3.09,5,5,0,0,1,1.56-1.75,3.25,3.25,0,0,1,1.82-.61c1,0,1.94,1,2.71,3a11.31,11.31,0,0,0-1.33,2.08,7,7,0,0,0-.51,3l.14,4.15-.14,10.34.07,14.12-.14,16.08.07.65a.84.84,0,0,1-.29.76,3.58,3.58,0,0,1,.71,2.23,5.7,5.7,0,0,0,.72,2.61C522.26,355.19,522.5,355.58,522.59,355.77Z" transform="translate(-16.5 -17.17)"/><path class="cls-1" d="M561.3,334.74a1.13,1.13,0,0,1,.29.83,2,2,0,0,1-.58,1.56s.07.09.07.21c0,.39-.52.58-1.55.58H559a.58.58,0,0,0-.43.25c-.15.17-.25.26-.33.26a3.09,3.09,0,0,1-.34-.22,2.07,2.07,0,0,0-.92-.29l-.43-.43a6.09,6.09,0,0,1-1.56.21,11.72,11.72,0,0,1-1.61-.14,11.51,11.51,0,0,0-1.5-.15,14.57,14.57,0,0,0-1.68.22,13.08,13.08,0,0,1-2.25.22l-3.55-.15a24,24,0,0,0-5.16.51,2.93,2.93,0,0,1-1,.27c-.42.06-.65.25-.69.58s-.28.58-.74.78a11.32,11.32,0,0,0-.36,2.67,22,22,0,0,0,.54,3.58,9.12,9.12,0,0,0,1.45,3.75c.14.17,1.18.94,3.11,2.32a14.33,14.33,0,0,0,4,2.08,16.25,16.25,0,0,0,5,.7,26.73,26.73,0,0,0,2.78-.18l1.52-.18h2.35a3.4,3.4,0,0,0,1.35-.65,4.42,4.42,0,0,1,2-.76,4.4,4.4,0,0,1-.6,4.73,3,3,0,0,1-2.37,1.27l-.76-.15-2.27.07h-2a45.82,45.82,0,0,1-6.76-1.15,21.19,21.19,0,0,1-8-3,11,11,0,0,1-3.76-4.86,15.51,15.51,0,0,1-1.19-5.76,21.69,21.69,0,0,1,1.45-7.64,20.22,20.22,0,0,1,3.28-6,24.06,24.06,0,0,1,5.6-4.46,8.24,8.24,0,0,0,1.11-.74,2.4,2.4,0,0,1,1.42-.56l1.2.07a7.79,7.79,0,0,1,2.72-.85,19.37,19.37,0,0,1,3.2-.34,9.29,9.29,0,0,1,4.83,1.63c1.74,1.08,2.8,3.35,3.16,6.79a7,7,0,0,0,.3,1.46,3.59,3.59,0,0,1,.2.64A1.23,1.23,0,0,1,561.3,334.74Zm-14.82-7.91a7.38,7.38,0,0,1-2.06,1.19,14,14,0,0,0-1.73,1.48c-.55.56-1.1,1.15-1.63,1.79s-1,1.21-1.39,1.72-.7.88-.92,1.14a1.11,1.11,0,0,0-.32.66c0,.27.16.46.5.58l.47.18h2.68l12.57-.47c1.61,0,2.42-.71,2.42-2.13a8.3,8.3,0,0,0-.88-3.92q-.88-1.68-4.65-2.66c-.29,0-.7,0-1.23-.07s-.91-.07-1.15-.07A22.38,22.38,0,0,0,546.48,326.83Z" transform="translate(-16.5 -17.17)"/><path class="cls-1" d="M595.17,342c0-.07.28-.72.83-1.95a49.66,49.66,0,0,0,.22-5.09l-.08-4.3.15-7.77a74.6,74.6,0,0,0-.33-8.42c-.21-1.71-.32-2.6-.32-2.67a3.5,3.5,0,0,1,.11-.82,3.91,3.91,0,0,0,.11-.66l-.08-.73q0-1.26,1.65-1.71a31.49,31.49,0,0,1,6.77-.46,44.34,44.34,0,0,1,8.44.71,20.38,20.38,0,0,1,6.2,2.19,10.57,10.57,0,0,1,3.72,3.18,14.1,14.1,0,0,1,1.61,3.16,18,18,0,0,1,.48,5,11,11,0,0,1-.74,4.26,33.17,33.17,0,0,1-2.65,4.83,22.75,22.75,0,0,1-4.39,5.13,22.33,22.33,0,0,1-5.32,3.4,24.52,24.52,0,0,1-6.48,1.82,8,8,0,0,0-3.67,1.19c-.64.53-1,1.74-1,3.62a15.57,15.57,0,0,0,.26,2.65,18.3,18.3,0,0,1,.25,3.13l-.07,1.62a11.1,11.1,0,0,0,.14,1.63l.15.9v.51a.94.94,0,0,1-.22.74,3.69,3.69,0,0,1-1.21.34,10.62,10.62,0,0,0-1.93.54,6.67,6.67,0,0,1-1.09.37,3,3,0,0,1-.79-.26,7.76,7.76,0,0,0-1.19-.38c-.39-.08-.58-.21-.58-.38s.22-.46.67-.95a2.35,2.35,0,0,0,.66-1.58v-.21a24.84,24.84,0,0,1,.53-2.86,16.61,16.61,0,0,0,.34-3.79c0-.94,0-1.93-.13-3a7.38,7.38,0,0,0-.25-1.81,3.34,3.34,0,0,0-.47-.61,1.73,1.73,0,0,1-.34-.45Zm5.56-3a41.64,41.64,0,0,0,5.51-1.25,34.54,34.54,0,0,0,4.68-1.75,11.35,11.35,0,0,0,3.07-1.92c.65-.62,1.38-1.38,2.19-2.27s1.43-1.63,1.86-2.21c.22-.57.55-1.39,1-2.43a10.49,10.49,0,0,0,.85-2.95,27.43,27.43,0,0,0,.16-3.22c0-2.67-.63-4.61-1.91-5.83a31,31,0,0,0-4.43-3.47q-2.51-1.64-7.57-1.64h-2.53a3.15,3.15,0,0,0-2.47.81,4.44,4.44,0,0,0-.71,2.87l.29,5.64-.07,6.21v8.21C600.66,335.93,600.68,337.67,600.73,339Z" transform="translate(-16.5 -17.17)"/><path class="cls-1" d="M660.36,334.74a1.13,1.13,0,0,1,.29.83,2,2,0,0,1-.58,1.56s.07.09.07.21c0,.39-.51.58-1.55.58h-.51a.6.6,0,0,0-.43.25c-.14.17-.25.26-.32.26a2.09,2.09,0,0,1-.35-.22,2.07,2.07,0,0,0-.92-.29l-.43-.43a6.09,6.09,0,0,1-1.56.21,11.48,11.48,0,0,1-1.6-.14,11.83,11.83,0,0,0-1.5-.15,14,14,0,0,0-1.68.22,13.28,13.28,0,0,1-2.26.22l-3.54-.15a24,24,0,0,0-5.17.51,2.93,2.93,0,0,1-1,.27c-.42.06-.65.25-.69.58s-.28.58-.74.78a11.32,11.32,0,0,0-.36,2.67,21.24,21.24,0,0,0,.55,3.58,9,9,0,0,0,1.44,3.75c.15.17,1.18.94,3.11,2.32a14.33,14.33,0,0,0,4,2.08,16.25,16.25,0,0,0,5,.7,26.57,26.57,0,0,0,2.78-.18l1.52-.18h2.35a3.4,3.4,0,0,0,1.35-.65,4.46,4.46,0,0,1,2-.76,4.4,4.4,0,0,1-.6,4.73,3,3,0,0,1-2.37,1.27l-.75-.15-2.28.07h-1.95a45.82,45.82,0,0,1-6.76-1.15,21.19,21.19,0,0,1-7.95-3,11,11,0,0,1-3.76-4.86,15.51,15.51,0,0,1-1.19-5.76,21.69,21.69,0,0,1,1.45-7.64,20,20,0,0,1,3.29-6,23.64,23.64,0,0,1,5.6-4.46,9,9,0,0,0,1.1-.74,2.41,2.41,0,0,1,1.43-.56l1.19.07a7.79,7.79,0,0,1,2.73-.85,19.16,19.16,0,0,1,3.19-.34,9.29,9.29,0,0,1,4.83,1.63c1.74,1.08,2.8,3.35,3.16,6.79a6.34,6.34,0,0,0,.31,1.46,4.08,4.08,0,0,1,.19.64A1.09,1.09,0,0,1,660.36,334.74Zm-14.81-7.91a7.75,7.75,0,0,1-2.06,1.19,14.07,14.07,0,0,0-1.74,1.48c-.55.56-1.09,1.15-1.62,1.79s-1,1.21-1.39,1.72l-.93,1.14a1.11,1.11,0,0,0-.32.66c0,.27.17.46.5.58l.47.18h2.68l12.57-.47c1.62,0,2.42-.71,2.42-2.13a8.3,8.3,0,0,0-.88-3.92q-.88-1.68-4.65-2.66c-.28,0-.69,0-1.22-.07s-.92-.07-1.16-.07A22,22,0,0,0,645.55,326.83Z" transform="translate(-16.5 -17.17)"/><path class="cls-1" d="M692.2,338.28c0,.2-.16.46-.49.8a3.51,3.51,0,0,0-.67.9,8.73,8.73,0,0,0-.29,2.11c-.07,1.15-.1,2.84-.1,5.08l.14,4.88a.93.93,0,0,1-.32.69,8,8,0,0,0-.08,1.33,17.16,17.16,0,0,0,.44,3.4l.39,1.91-.07,1.77.07,1.56q-2.6,2.6-3.86,2.6a2.22,2.22,0,0,1-.69-.25,2.12,2.12,0,0,0-.94-.26h-.21a6.33,6.33,0,0,1-.29-1.8,7.3,7.3,0,0,1,.83-3.4c.26-.34.46-.6.59-.79a5.92,5.92,0,0,0,.2-2.17c0-1.38-.14-2.06-.43-2.06a2.46,2.46,0,0,0-.45.14,2.25,2.25,0,0,1-.82.15h-.28a1.24,1.24,0,0,0-.55.76,28.32,28.32,0,0,0-4.73,1.62,12.47,12.47,0,0,1-4.05.72,12,12,0,0,1-3.83-.56,7.33,7.33,0,0,1-2.85-1.66,10.59,10.59,0,0,1-1.5-1.64,5.13,5.13,0,0,1-.34-2.35l.07-.9v-.29q0-3.61,5.62-7.59a26.31,26.31,0,0,1,10.49-4.81,13.93,13.93,0,0,0,2-.45,2.71,2.71,0,0,0,1.21-.77,4.24,4.24,0,0,0,.48-2.5q0-6.43-6.79-8.74a4.36,4.36,0,0,1-.59-.29,1.38,1.38,0,0,0-.67-.22,49.93,49.93,0,0,0-5.86.29,3.78,3.78,0,0,1-2.89,1.48c-.79,0-1.19-.27-1.19-.83,0,0,.18-.53.52-1.53a2.35,2.35,0,0,1,2.52-1.5q2.26-1.23,8.31-1.23a8.68,8.68,0,0,1,7.51,3.76q2.67,3.75,2.68,10.73v.5a1.69,1.69,0,0,0,1,.69c.48.14.72.36.72.65Zm-7.12,12.83a9.63,9.63,0,0,0,2.28-5.49,8.33,8.33,0,0,0-.74-3.22,2.9,2.9,0,0,0-3-1.73,10.77,10.77,0,0,0-6.93,2.13h-.91q-5.57,3.07-5.56,6.5a4.87,4.87,0,0,0,2.29,4.07,9,9,0,0,0,5.33,1.64,13.37,13.37,0,0,0,3-.68,10.29,10.29,0,0,0,4.15-2.57Z" transform="translate(-16.5 -17.17)"/><path class="cls-1" d="M712,303.52a4.62,4.62,0,0,1-.07.73.84.84,0,0,0-.55.54c0,.21-.19.79-.43,1.73a36.66,36.66,0,0,0-.58,5.76c-.14,2.91-.21,5-.21,6.35v6.5l-.08,15.75q0,3.51.09,7.92a24.72,24.72,0,0,0,.4,5.2,3.94,3.94,0,0,0,.56,1.08q-.1,2.46-1.26,2.46l-.76-.07a3.13,3.13,0,0,0-.74.18,3.61,3.61,0,0,1-1.1.18,1.57,1.57,0,0,1-1.25-.63,2.49,2.49,0,0,1-.53-1.65,1.17,1.17,0,0,1,.22-.61q.84,0,.83-13.48l-.21-21.06.36-11.35-.26-1.84a27.88,27.88,0,0,1-.25-3.25,5.7,5.7,0,0,1,.22-1.56,10.27,10.27,0,0,1,3.61-1.33,1.05,1.05,0,0,1,.8.36,9.35,9.35,0,0,1,1,1.62c.15,0,.22.06.22.18Zm18.28,25.37a2.12,2.12,0,0,0-.65-.07,2.44,2.44,0,0,0-.85.12,28.74,28.74,0,0,0-2.79,2.55l-4.91,4.71q-2.42,2.31-3.56,3.58c-.75.84-1.14,1.41-1.15,1.69s1.19,1.28,3.58,2.78l5.82,3.86a41.93,41.93,0,0,0,4.66,2.73,10.24,10.24,0,0,0,3.54,1,3.59,3.59,0,0,1,2.13,1.48,2.28,2.28,0,0,1,.69,1.52,1.57,1.57,0,0,1-.8,1.35,7.72,7.72,0,0,0-1,.78,1.93,1.93,0,0,1-1.84,1.41,3.77,3.77,0,0,1-.9-.15v-.07c0-.26-.41-.77-1.23-1.52a45.26,45.26,0,0,0-4.07-3.1q-2.83-2-8.52-5.53c-3.8-2.36-5.8-3.55-6-3.58l-1-.11a6,6,0,0,1,2.13-4.59,3.29,3.29,0,0,0,2.17-1.62.41.41,0,0,0,.29.07c.19,0,.45-.19.77-.58s1-1.13,2.15-2.24,2-2.06,2.74-2.84a24.18,24.18,0,0,0,1.95-2.37l1.41-2a11,11,0,0,0,1.09-2.13c.39,0,.9-.32,1.56-1a2.73,2.73,0,0,1,1.8-1h.22a.76.76,0,0,0,.58.22h.29a2.08,2.08,0,0,1,.83,1.77A3.87,3.87,0,0,1,730.29,328.89Z" transform="translate(-16.5 -17.17)"/><path class="cls-1" d="M802.43,360c0,.61-.43.91-1.27.91l-3.76-.54c-5-.53-8.4-1-10.11-1.27a66.12,66.12,0,0,1-6.58-1.52,32,32,0,0,1-6.47-2.78,26.34,26.34,0,0,1-5.06-3.65,23.48,23.48,0,0,1-3.57-4.52,20.49,20.49,0,0,1-2.24-5.16,21.73,21.73,0,0,1-.76-5.86,26.08,26.08,0,0,1,2.18-9.15c1.46-3.68,2.44-6,2.93-6.89a25.23,25.23,0,0,1,3.72-4.41,28.8,28.8,0,0,1,8.08-5.49c1.2-.58,1.81-1,1.81-1.3a7.09,7.09,0,0,1,2.6-.41,8.71,8.71,0,0,0,3-.55,13.28,13.28,0,0,1,4.39-.52,12.46,12.46,0,0,1,2.48.23c.73.16,1.7.32,2.89.47s2.11.29,2.75.4a7.27,7.27,0,0,1,1.64.47c.46.21.69.44.69.71a14,14,0,0,1-.76,2.74c-.51,1.49-1.17,2.24-2,2.24a2.68,2.68,0,0,1-1.41-.47,8.5,8.5,0,0,0-4.43-2.47,20,20,0,0,0-3.81-.71c-.53,0-1.29.05-2.27.15l-2.14.14a6.37,6.37,0,0,0-.75.11,2.89,2.89,0,0,0-1.2.29c-.43.24-.83.44-1.19.61a5,5,0,0,1-1,.36,3.57,3.57,0,0,1-.9.11h-.37l-.5.54a2.53,2.53,0,0,0-1.84.8h-.76Q767,323.36,767,333.91a19,19,0,0,0,3.76,11.36A22.94,22.94,0,0,0,781,353.13a34.55,34.55,0,0,0,13.2,2.64,26.56,26.56,0,0,0,3.94-.47c1.81-.31,2.71-.65,2.71-1,1.08,0,1.63,1.89,1.63,5.6Z" transform="translate(-16.5 -17.17)"/><path class="cls-1" d="M834.34,338.28c0,.2-.16.46-.49.8a3.51,3.51,0,0,0-.67.9,8.73,8.73,0,0,0-.29,2.11c-.07,1.15-.1,2.84-.1,5.08l.14,4.88a.93.93,0,0,1-.32.69,8,8,0,0,0-.08,1.33,17.16,17.16,0,0,0,.44,3.4l.39,1.91-.07,1.77.07,1.56q-2.6,2.6-3.86,2.6a2.22,2.22,0,0,1-.69-.25,2.12,2.12,0,0,0-.94-.26h-.21a6.33,6.33,0,0,1-.29-1.8,7.3,7.3,0,0,1,.83-3.4c.26-.34.46-.6.59-.79a5.92,5.92,0,0,0,.2-2.17c0-1.38-.14-2.06-.43-2.06a2.46,2.46,0,0,0-.45.14,2.25,2.25,0,0,1-.82.15H827a1.26,1.26,0,0,0-.54.76,28.32,28.32,0,0,0-4.73,1.62,12.47,12.47,0,0,1-4.05.72,12,12,0,0,1-3.83-.56,7.33,7.33,0,0,1-2.85-1.66,10.59,10.59,0,0,1-1.5-1.64,5.13,5.13,0,0,1-.34-2.35l.07-.9v-.29q0-3.61,5.62-7.59a26.31,26.31,0,0,1,10.49-4.81,13.93,13.93,0,0,0,2-.45,2.71,2.71,0,0,0,1.21-.77,4.24,4.24,0,0,0,.48-2.5q0-6.43-6.79-8.74a4.36,4.36,0,0,1-.59-.29,1.38,1.38,0,0,0-.67-.22,49.93,49.93,0,0,0-5.86.29,3.78,3.78,0,0,1-2.89,1.48c-.79,0-1.19-.27-1.19-.83,0,0,.18-.53.52-1.53a2.35,2.35,0,0,1,2.52-1.5q2.26-1.23,8.31-1.23a8.68,8.68,0,0,1,7.51,3.76q2.67,3.75,2.68,10.73v.5a1.66,1.66,0,0,0,1,.69c.48.14.72.36.72.65Zm-7.12,12.83a9.63,9.63,0,0,0,2.28-5.49,8.33,8.33,0,0,0-.74-3.22,2.9,2.9,0,0,0-3-1.73,10.77,10.77,0,0,0-6.93,2.13H818q-5.57,3.07-5.56,6.5a4.87,4.87,0,0,0,2.29,4.07A9,9,0,0,0,820,355a13.37,13.37,0,0,0,3-.68,10.29,10.29,0,0,0,4.15-2.57Z" transform="translate(-16.5 -17.17)"/><path class="cls-1" d="M854.44,355.77a5.05,5.05,0,0,1-.56,1.41,1.75,1.75,0,0,1-1.14.36,1.21,1.21,0,0,1-.8.43c-.19,0-.39-.14-.61-.43a3.91,3.91,0,0,1-1.23.8c-1.88-.53-2.82-1.22-2.82-2.06v-.08c.39,0,.58-.35.58-1v-.65l-.07-1.2a10.51,10.51,0,0,1,.43-1.69,78.1,78.1,0,0,0,.54-10.37v-7.41l-.07-2.78.07-2.39-.43-8.35.29-5.78-.29-7.48v-1.41a6.79,6.79,0,0,1-.47-2.42l.14-1.55a1.39,1.39,0,0,0-.28-.69,6.41,6.41,0,0,1,.63-3.09,5,5,0,0,1,1.55-1.75,3.28,3.28,0,0,1,1.83-.61c1,0,1.94,1,2.71,3a11.38,11.38,0,0,0-1.34,2.08,7,7,0,0,0-.51,3l.15,4.15-.15,10.34.08,14.12-.15,16.08.07.65c0,.39-.09.64-.29.76A3.52,3.52,0,0,1,853,352a6,6,0,0,0,.72,2.61C854.11,355.19,854.34,355.58,854.44,355.77Z" transform="translate(-16.5 -17.17)"/><path class="cls-1" d="M875.29,355.77a4.48,4.48,0,0,1-.56,1.41,1.7,1.7,0,0,1-1.14.36,1.17,1.17,0,0,1-.79.43c-.19,0-.4-.14-.61-.43a4.16,4.16,0,0,1-1.23.8c-1.88-.53-2.82-1.22-2.82-2.06v-.08c.38,0,.58-.35.58-1v-.65l-.08-1.2a11.17,11.17,0,0,1,.44-1.69,78.1,78.1,0,0,0,.54-10.37v-7.41l-.07-2.78.07-2.39-.43-8.35.29-5.78-.29-7.48v-1.41a6.58,6.58,0,0,1-.47-2.42l.14-1.55a1.43,1.43,0,0,0-.29-.69,6.29,6.29,0,0,1,.64-3.09,4.92,4.92,0,0,1,1.55-1.75,3.25,3.25,0,0,1,1.82-.61c1,0,1.94,1,2.71,3a11.31,11.31,0,0,0-1.33,2.08,7,7,0,0,0-.51,3l.14,4.15-.14,10.34.07,14.12-.14,16.08.07.65a.84.84,0,0,1-.29.76,3.58,3.58,0,0,1,.71,2.23,5.7,5.7,0,0,0,.72,2.61C875,355.19,875.2,355.58,875.29,355.77Z" transform="translate(-16.5 -17.17)"/><path class="cls-1" d="M896.37,357.61c0,.15-.53.43-1.57.85a7.79,7.79,0,0,1-2,.63h-.21a3.69,3.69,0,0,0-.93.15,4.28,4.28,0,0,1-.78.14,1.84,1.84,0,0,1-1.24-.48q-.54-.5-.54-.78a14.22,14.22,0,0,1,.29-2.37,5.19,5.19,0,0,1,.9-2.36,81.69,81.69,0,0,0,.29-8.5l-.29-13.11.07-2.28a3.39,3.39,0,0,0-.59-1.34,4.45,4.45,0,0,1-.6-2.38,1.35,1.35,0,0,1,.46-1.17,11.15,11.15,0,0,1,2.09-1l2.07-.91a1,1,0,0,1,.43-.07c.61,0,.91.94.91,2.82,0,1.06-.18,3.81-.56,8.25s-.56,8.06-.56,10.83c0,1.56,0,3,.13,4.42s.17,2.44.27,3.16a5.49,5.49,0,0,0,.65,2,7.39,7.39,0,0,1,1,3.4Zm-1.67-46a11.65,11.65,0,0,0,1.88,1.05c.87.41,1.3.9,1.3,1.48a2.43,2.43,0,0,1-.94,1.68,2.75,2.75,0,0,1-1.88.88,3.28,3.28,0,0,1-2.22-1.19,5.66,5.66,0,0,1-1.17-1.37,2.55,2.55,0,0,1,1-1.59,2.87,2.87,0,0,1,1.93-.94Z" transform="translate(-16.5 -17.17)"/><path class="cls-1" d="M926.18,326.47a23.87,23.87,0,0,1,3.94-.4q9.82,0,9.83,12.28a66.24,66.24,0,0,1-2.24,15.79,25.51,25.51,0,0,0-1,5.17,1.24,1.24,0,0,0,.14.58,2.46,2.46,0,0,1-2.64,2.24,4.13,4.13,0,0,1-2.36-.72c-.71-.49-1.07-1-1.07-1.52a5.07,5.07,0,0,1,1.52-3q1.51-1.77,2.78-6.9a43.29,43.29,0,0,0,1.27-10.34q0-10.67-8.75-10.66a15,15,0,0,0-6.45,1.41q-3,1.41-3.45,3.11a3.76,3.76,0,0,1-1,.72c-.38.19-.6.37-.66.53s-.19,2-.38,5.47-.29,6.14-.29,8v1.7a6.48,6.48,0,0,0,.45,2.45,7,7,0,0,1,.45,1.3l-.07,1.27a3.72,3.72,0,0,1-.42,1.9,1.2,1.2,0,0,1-1.06.7h-.15l-.21.51a2.27,2.27,0,0,0-.62-.15,2.4,2.4,0,0,0-1.3.58h-.18c-.27,0-.67-.31-1.23-.94-.79,0-1.19-.3-1.19-.9a1.88,1.88,0,0,1,.51-1.34c.31,0,.67-1.58,1.08-4.75a97,97,0,0,0,.61-12.05q0-9.47-1.55-10.8l-.07-.66A1.87,1.87,0,0,1,912,325.2a2.15,2.15,0,0,0,1.17-1c.35-.53.72-.8,1.1-.8h.08a4.21,4.21,0,0,0,1.24-.36,2.87,2.87,0,0,1,.6-.25c.34,0,.5.47.5,1.41a8.39,8.39,0,0,1-.43,2.47,8.4,8.4,0,0,0-.43,1.75,1.27,1.27,0,0,0,.38.94,1.24,1.24,0,0,0,.95.4h.22a8.36,8.36,0,0,1,1.09-1h.1a8.27,8.27,0,0,0,5.24-1.41l.8-.13a4.3,4.3,0,0,1,.61-.09A3.12,3.12,0,0,0,926.18,326.47Z" transform="translate(-16.5 -17.17)"/><path class="cls-1" d="M979.49,322.38a68.17,68.17,0,0,0-.84,12.79q0,2.9.33,9.07c.22,4.12.32,7.76.32,10.92q0,9-1.77,14.43t-2.89,5.4l-.21-.07q-.95,2.67-4.7,3.6a26.45,26.45,0,0,1-5.49.92,14.65,14.65,0,0,1-2.17-.22A16.24,16.24,0,0,0,960,379a4.75,4.75,0,0,0-1,.08,1.55,1.55,0,0,1-1.08.5.8.8,0,0,1-.69-.36,1.31,1.31,0,0,1-1.12.43l-.65-.07a2.87,2.87,0,0,0-.49.11,2.65,2.65,0,0,1-.48.11,1.49,1.49,0,0,1-.89-.45,2,2,0,0,1-.52-1.54,12,12,0,0,1,.12-1.52,9.81,9.81,0,0,0,.13-1.22v-.8a1.79,1.79,0,0,1,.51-1h.28a5.61,5.61,0,0,1,2.39,1,15.38,15.38,0,0,0,7.91,2.27,8.51,8.51,0,0,0,5-1.26c1.5-.07,2.29-.57,2.39-1.48.41-.17,1.12-1.39,2.15-3.67s1.53-5.76,1.53-10.46v-1.05a2,2,0,0,0-1.91-.94,9.32,9.32,0,0,0-1.77.22,10,10,0,0,1-2,.22,40.49,40.49,0,0,1-4.57-.38,37.5,37.5,0,0,1-4.74-.85,18.39,18.39,0,0,1-4.19-1.95,11.26,11.26,0,0,1-3.52-3,13.22,13.22,0,0,1-1.7-3.54,13.74,13.74,0,0,1-.65-4.19,14.46,14.46,0,0,1,2.26-7.79,19.65,19.65,0,0,1,6.52-6.27,1.18,1.18,0,0,0,.65-.58q.72-1.23,5.6-2.31l4.26-1.12h.08a29.28,29.28,0,0,0,4.37-1.48l.5.61a7.3,7.3,0,0,0,.26-2.45v-1.63h.65C977.76,321.12,979.08,321.54,979.49,322.38Zm-7,30.28c.07.29.33.44.76.44q2.06,0,2.06-4.74l-.61-16.58.18-1.19c0-1.67-1.15-2.5-3.44-2.5a24.82,24.82,0,0,0-6.12.94,14.8,14.8,0,0,0-6.41,3.63,15,15,0,0,0-3.85,5.22,13.66,13.66,0,0,0-1,5,8.66,8.66,0,0,0,2.14,5.78,15,15,0,0,0,5.24,4q3.1,1.44,9,1.44a2.78,2.78,0,0,0,.83-.14A3.51,3.51,0,0,0,972.51,352.66Z" transform="translate(-16.5 -17.17)"/><path class="cls-1" d="M494.05,17.74q2.46,3.2,2.46,5.07l-.09,5.64q0,14.34,2.7,42.82t6.8,57.27Q510,157.31,514,181.1t4.49,27.63a15.06,15.06,0,0,0,2.69,6.87q2.31,4.77,2.31,6.22c0,1.83-1.68,2.74-5.06,2.74h-1.16l-3.18,4.2a57.29,57.29,0,0,1-8,1.45q-4.77.57-5.79,1.44c-.29,0-.63-.58-1-1.73a40.42,40.42,0,0,1-.87-5.07c-.29-2.21-.54-5-.73-8.38l-1-27.2q-.29-16.34-1-21.4-2.61-16.63-4.94-34.71L487.56,105q-2.9-24.88-4.71-34.64t-5.29-11.65q-54.81,106.89-54.81,112a25.85,25.85,0,0,0,.58,3.61,30.23,30.23,0,0,0-2.46,4.34,5.18,5.18,0,0,1,1.3,3.33q-8.67,8.53-10.41,15.62-2.17,2.17-3.91,2.17-1,0-6.14-4.34a19.94,19.94,0,0,1-6.58-12,7.1,7.1,0,0,1-1.87-1.59,11.93,11.93,0,0,1-1.58-2.47,26.06,26.06,0,0,1-1.15-3.18l-.86-4q-.44-2.18-.72-4.92l-7.24-15.47-13.9-31.82q-15.48-36.72-23.88-52.92a18.51,18.51,0,0,0-2.18,2.24c-.67.82-1.4,3.59-2.17,8.32Q336.25,96,331,120.57l-7.1,34.71A285.28,285.28,0,0,0,319,192a30.5,30.5,0,0,1-1.37,5.86,22.48,22.48,0,0,0-1.24,6.29c0,.29.15,1.3.44,3a33.3,33.3,0,0,1,.43,5.49q0,10.71-3.61,13.89a10.74,10.74,0,0,0-5.72,2.31c-2,1.45-3.3,2.17-4,2.17h-.44q-2.31,0-5.35-2.82a41.86,41.86,0,0,0-4.34-3.69q10.72-12,24-96,1.88-12.15,7.86-36.53t6-35.65l-.29-12.72q0-10.27,3.05-16t8.28-5.71q7.26,0,9.44,13.88c2.52,1.15,3.83,2.77,3.93,4.84a89.29,89.29,0,0,0,1.53,10.48Q359,58.51,367.68,76.3l8.53,16.78v5.21q2.6,7.81,13,30.16t14.45,28.28q4.05,5.94,6.94,5.93,8.82,0,21-31.38,2.31-5.93,11.24-24a293.08,293.08,0,0,0,13.36-30.53,98.69,98.69,0,0,1,10.26-21.32q2.31-3.61,6.22-15.83T481,22.3q4.47-5.13,9.83-5.13A16.1,16.1,0,0,1,494.05,17.74Z" transform="translate(-16.5 -17.17)"/><path class="cls-1" d="M640.05,48.26a53.28,53.28,0,0,1-5.92-5.06A14.39,14.39,0,0,0,624,39.15q-23.14,0-36.45,10.41T574.25,77q0,18.49,39.48,39.07a36.79,36.79,0,0,1,6,.58q3.4.58,11.43,8.32a93.22,93.22,0,0,1,12.22,13.88,52.59,52.59,0,0,1,6.37,12.44,38.34,38.34,0,0,1,2.16,12.51q0,27.48-12.87,42.52t-45.85,27a10,10,0,0,0-3.18-.58q-2.31,0-7.3,2.53t-20.32,2.53q-5.5,0-7.74-4.56t-2.24-13.52a8.31,8.31,0,0,1,2-5.06h1.16q3.76,0,7.81,4.48,8.82,2,10.85,2,1.59,0,13.67-1.52a71.12,71.12,0,0,0,22.85-6.86q10.77-5.36,14.68-10.27a83.24,83.24,0,0,0,7.66-11.78,32,32,0,0,0,3.76-15.68q0-13.15-8-25.22T611.25,136.1v-.43q0-2.46-6.51-6.22-25.44-11.62-35.63-23a38.84,38.84,0,0,1-10.19-26.82,44.69,44.69,0,0,1,1.66-12.15,47.66,47.66,0,0,1,4.85-11.36,46.93,46.93,0,0,1,7.88-10A66.17,66.17,0,0,1,586,37q7.95-4.62,11.14-4.63h4.48A38.92,38.92,0,0,0,604.76,29a27.94,27.94,0,0,0,8.54-2.32q4.77-2,6.07-2.46a4.65,4.65,0,0,1,2,2.46,39.08,39.08,0,0,1,8.24-.87h3q6.65,0,10.27,1.74T646.56,35a19.15,19.15,0,0,1-2.09,8.75Q642.37,47.82,640.05,48.26Z" transform="translate(-16.5 -17.17)"/><path class="cls-1" d="M697.76,162.08c0-.28,1.11-2.89,3.33-7.81a194.07,194.07,0,0,0,.87-20.39l-.29-17.21.58-31.09q0-23.43-1.31-33.7c-.86-6.85-1.3-10.42-1.3-10.71a15.56,15.56,0,0,1,.44-3.25,14.73,14.73,0,0,0,.43-2.68l-.29-2.89q0-5.05,6.58-6.87t27.12-1.81a177.53,177.53,0,0,1,33.77,2.82,81.67,81.67,0,0,1,24.8,8.75q10.43,5.94,14.9,12.73a55.05,55.05,0,0,1,6.44,12.66q1.95,5.85,1.95,20a44.71,44.71,0,0,1-3,17.06q-3,7.25-10.63,19.31a90.44,90.44,0,0,1-17.57,20.54,89.48,89.48,0,0,1-21.26,13.6,97.88,97.88,0,0,1-26,7.3q-10.85,1.59-14.68,4.77t-3.83,14.46a62.26,62.26,0,0,0,1,10.63,74.1,74.1,0,0,1,1,12.52l-.29,6.5a42.31,42.31,0,0,0,.58,6.51l.58,3.62v2c0,1.55-.29,2.53-.87,3s-2.19.89-4.84,1.37a43.78,43.78,0,0,0-7.74,2.17,25.09,25.09,0,0,1-4.34,1.45,11.64,11.64,0,0,1-3.18-1,29.37,29.37,0,0,0-4.77-1.51c-1.55-.34-2.32-.85-2.32-1.52s.89-1.86,2.68-3.83a9.31,9.31,0,0,0,2.67-6.3v-.86a102.17,102.17,0,0,1,2.1-11.43,66.49,66.49,0,0,0,1.38-15.19q0-5.64-.51-11.93t-1-7.23a14.07,14.07,0,0,0-1.88-2.46c-.92-1-1.38-1.61-1.38-1.81ZM720,149.94a172,172,0,0,0,22.05-5,140,140,0,0,0,18.73-7q8.38-3.9,12.29-7.66t8.75-9.12q4.85-5.34,7.45-8.82,1.31-3.47,4.05-9.76a41.89,41.89,0,0,0,3.4-11.79,109.57,109.57,0,0,0,.65-12.87q0-16.05-7.66-23.36A125,125,0,0,0,772,40.67q-10-6.59-30.3-6.58H731.61q-7.1,0-9.91,3.25t-2.82,11.5L720,71.4l-.29,24.88v32.83Q719.75,142.13,720,149.94Z" transform="translate(-16.5 -17.17)"/><path class="cls-1" d="M999.89,234.25c0,2.41-1.68,3.62-5.06,3.62l-15-2.17q-30.22-3.18-40.5-5.06A263.81,263.81,0,0,1,913,224.56a127.9,127.9,0,0,1-25.89-11.13,105.1,105.1,0,0,1-20.25-14.61,94.21,94.21,0,0,1-14.31-18.08,83,83,0,0,1-9-20.68,87.44,87.44,0,0,1-3-23.43q0-14.61,8.75-36.66T861,72.41q3-5.49,14.89-17.64t32.33-22q7.23-3.48,7.23-5.21a28.31,28.31,0,0,1,10.41-1.66,34.31,34.31,0,0,0,12.08-2.17q5.43-2.1,17.57-2.1a47.46,47.46,0,0,1,9.91.94q4.41.94,11.57,1.88t11,1.59a27.12,27.12,0,0,1,6.58,1.88c1.83.82,2.75,1.76,2.75,2.82q0,2-3,11t-8,9a10.87,10.87,0,0,1-5.64-1.88q-6.37-7.08-17.72-9.91t-15.26-2.82c-2.12,0-5.16.2-9.11.58l-8.53.58a24.14,24.14,0,0,0-3,.43,11.81,11.81,0,0,0-4.77,1.16q-2.61,1.45-4.77,2.46a20.57,20.57,0,0,1-4.05,1.45,16.68,16.68,0,0,1-3.62.43h-1.45l-2,2.17a10.13,10.13,0,0,0-7.38,3.18h-3Q858,87.46,858,129.69q0,24.59,15,45.48t40.86,31.46a138.42,138.42,0,0,0,52.86,10.56,104.82,104.82,0,0,0,15.77-1.88c7.23-1.25,10.84-2.61,10.84-4.05q6.51.15,6.51,22.42Z" transform="translate(-16.5 -17.17)"/><path class="cls-2" d="M44.49,228.18S37.23,98.89,28.78,56.57C27.17,48.49,16.5,25,16.5,25s14.86,10.72,28,10.72C57.28,35.67,70,25,70,25S61.49,48.58,60.2,56.57C53.3,99.17,44.49,228.18,44.49,228.18Z" transform="translate(-16.5 -17.17)"/><polygon class="cls-2" points="45.98 98.86 159.08 7.68 92.45 98.86 159.08 210.02 45.98 98.86"/><path class="cls-2" d="M243.66,74S198,85.46,183.11,94.88c-2.86,1.8-11.16,10.35-11.16,10.35s13.48-23.51,13.48-31.32c0-7.11-13.48-28.36-13.48-28.36s8.34,6.17,11.16,7.61C198.14,60.85,243.66,74,243.66,74Z" transform="translate(-16.5 -17.17)"/><path class="cls-2" d="M243.66,170.72S198,182.16,183.11,191.58c-2.86,1.8-11.16,10.35-11.16,10.35s13.48-23.51,13.48-31.31c0-7.12-13.48-28.37-13.48-28.37s8.34,6.17,11.16,7.61C198.14,157.56,243.66,170.72,243.66,170.72Z" transform="translate(-16.5 -17.17)"/></svg>