<svg xmlns="http://www.w3.org/2000/svg" viewBox="0 0 492.2 513.2"><path d="M137.2 48.7c-6.4 13.8-11.9 31.2-16.5 52.3-4.6 21.1-8.4 44.4-11.4 69.8-3 25.5-5.4 52-7.2 79.5-1.8 27.5-3.2 54.5-4.1 80.9-.9 26.4-1.7 51.2-2.4 74.3-.7 23.2-1.5 43-2.4 59.5v9.6c0 4.6-.2 9.2-.7 13.8-.5 4.6-1.2 8.6-2.1 12-.9 3.4-2.3 5.2-4.1 5.2-1.4 0-2.5-1.8-3.4-5.5-.9-3.7-1.6-7.9-2.1-12.7-.5-4.8-.8-9.4-1-13.8-.2-4.4-.3-7.2-.3-8.6-.9-16.5-1.7-36.4-2.4-59.5-.7-23.2-1.5-47.9-2.4-74.3-.9-26.4-2.3-53.3-4.1-80.9-1.8-27.5-4.2-54-7.2-79.5s-6.7-48.7-11-69.8C48 79.9 42.6 62.5 36.2 48.7c-2.3-5.5-5.4-11-9.3-16.5-3.9-5.5-8.6-11.5-14.1-17.9-3.2-3.7-4.5-6-3.8-6.9.7-.9 3.1-.9 7.2 0 8.3.9 15.2 4 21 9.3C42.9 22 49 27.1 55.4 32.2c11.9 8.7 22.2 13.1 31 13.1 8.7 0 19-4.4 31-13.1 6.4-5 12.5-10.2 18.2-15.5 5.7-5.3 13-8.4 21.7-9.3 4.1-.5 6.4-.3 6.9.3.5.7-.9 2.9-4.1 6.5-5.1 6.4-9.5 12.5-13.4 18.2-4.1 5.8-7.2 11.2-9.5 16.3zm180.3-25.5c-17 36.7-31.7 67.4-44 92.2s-22.8 45.9-31.3 63.3-14.9 32.1-19.3 44c-4.4 11.9-6.5 23.4-6.5 34.4s2.2 22.5 6.5 34.4c4.4 11.9 10.7 26.5 18.9 43.7 8.3 17.2 18.7 38.1 31.3 62.6 12.6 24.5 27.4 54.9 44.4 91.2 4.6 9.6 5.6 14.9 3.1 15.8-2.5.9-7.9-3.9-16.2-14.5L131.7 264c-2.8-3.7-4.1-6.2-4.1-7.6 0-1.4 1.4-3.9 4.1-7.6l172.7-227c8.7-11 14.2-15.8 16.5-14.5 2.3 1.4 1.2 6.7-3.4 15.9zm145.9 353c-11 1.4-22 3.2-33 5.5s-21.9 5.8-32.7 10.7c-10.8 4.8-21.7 11.2-32.7 19.3-11 8-22 18.5-33 31.3-1.8 2.3-3.4 3.3-4.8 3.1-1.4-.2-1.8-2.6-1.4-7.2.5-6.9 2.2-13.2 5.2-18.9 3-5.7 6.2-11.4 9.6-16.9 3.4-5.5 6.4-10.9 8.9-16.2 2.5-5.3 3.8-11.1 3.8-17.5 0-6-1.3-11.8-3.8-17.5-2.5-5.7-5.5-11.4-8.9-16.9-3.4-5.5-6.7-11.1-9.6-16.9-3-5.7-4.7-12-5.2-18.9-.9-8.3 1.4-9.4 6.9-3.4 11 12.8 21.9 23.3 32.7 31.3 10.8 8 21.7 14.5 32.7 19.3 11 4.8 21.9 8.4 32.7 10.7 10.8 2.3 21.7 4.4 32.7 6.2 11.9 1.8 17.9 4 17.9 6.5-.1 2.4-6.1 4.6-18 6.4zm0-223c-11 1.8-21.9 3.9-32.7 6.2-10.8 2.3-21.7 5.8-32.7 10.7-11 4.8-21.9 11.2-32.7 19.3-10.8 8-21.7 18.5-32.7 31.3-2.3 2.8-4 3.9-5.2 3.4-1.2-.5-1.5-2.8-1-6.9.5-6.9 2.2-13.3 5.2-19.3s6.1-11.7 9.3-17.2c3.2-5.5 6.1-11 8.6-16.5s3.8-11.2 3.8-17.2-1.3-11.8-3.8-17.5c-2.5-5.7-5.4-11.4-8.6-16.9-3.2-5.5-6.3-11.1-9.3-16.9-3-5.7-4.7-11.8-5.2-18.2-.5-5-.1-7.6 1-7.6s2.9 1.2 5.2 3.4c11 12.8 21.9 23.3 32.7 31.3 10.8 8 21.7 14.3 32.7 18.9 11 4.6 21.9 8 32.7 10.3 10.8 2.3 21.7 4.4 32.7 6.2 12.8 2.3 19.1 4.6 18.9 6.9-.2 2.5-6.5 4.5-18.9 6.3z" fill="#0f4a7f"/></svg>