<svg id="Layer_1" data-name="Layer 1" xmlns="http://www.w3.org/2000/svg" viewBox="0 0 43.41 61.66"><defs><style>.cls-1{fill:#004880}.cls-3{fill:#fff}</style></defs><path class="cls-1" d="M.23 46.37v15.19h34.6L18.24 46.37H.23z"/><path fill="#1b1464" opacity=".3" d="M43.41 46.37l-8.58 15.19 8.58-15.19z"/><path class="cls-1" d="M8.82 21.53L25.93 5.92l-12.94.16L.07 15.19l.02 14.39v-.1L.07 15.29l8.75 6.24z"/><path class="cls-3" d="M.5.5h20.89l3.56 4.93-24.45.3V.5z"/><path class="cls-1" d="M31.43 2.17l2.85 3.94-11 .14-12 .14V2.17h20.15m.51-1H10.3v6.24l13-.16 12.94-.16-4.3-5.92z" transform="translate(-10.3 -1.17)"/><path class="cls-3" d="M18.57 46L.58 29.46v-13.2l7.95 5.68 34.25 24.53-8.07 14.3L18.57 46z"/><path class="cls-1" d="M11.37 18.4l7.17 5.11 33.88 24.28-7.54 13.36-15.67-14.34-17.83-16.4v-12m-1-1.94v14.38l18.15 16.69 16.6 15.2 8.57-15.2v-.06L19.12 22.7l-8.75-6.24z" transform="translate(-10.3 -1.17)"/></svg>